<?xml version="1.0" encoding="utf-8"?>
<!-- Generator: Adobe Illustrator 19.0.0, SVG Export Plug-In . SVG Version: 6.00 Build 0)  -->
<svg version="1.1" id="layer" xmlns="http://www.w3.org/2000/svg" xmlns:xlink="http://www.w3.org/1999/xlink" x="0px" y="0px"
	 viewBox="-153 -46 652 652" style="enable-background:new -153 -46 652 652;" xml:space="preserve">
<style type="text/css">
	.st0{fill:#4B009B;}
</style>
<path id="logo" class="st0" d="M417.4,246.8c11.8,0,23,5,29.9,12.7l0,0v-10.8h20.9V342h-20.9v-11.2c-7.1,8-18.3,13.1-30.1,13.1
	c-23.7,0-46.5-18.9-46.5-48.6C370.7,265.4,393.1,246.8,417.4,246.8z M256.9,310.1l17.2,9.9c-8.8,14.6-23,23.9-42.8,23.9
	c-19.8,0-34-9.3-42.8-23.9l0,0l17.2-9.9c5.2,9,14.4,14.9,25.6,14.9C242.5,325,251.7,319,256.9,310.1L256.9,310.1z M49.6,310.1
	l17.2,9.9c-8.8,14.6-23,23.9-42.8,23.9s-34-9.3-42.8-23.9l0,0l17.2-9.9C3.6,319,12.8,325,24,325S44.3,319,49.6,310.1L49.6,310.1z
	 M-110.9,206.4v53.1c6.9-7.7,18.1-12.7,29.9-12.7c24.3,0,46.7,18.7,46.7,48.6c0,29.7-22.8,48.6-46.5,48.6c-11.8,0-23-5-30.1-13.1
	l0,0V342h-20.9V206.4H-110.9z M301.4,248.6l23.9,65l23.9-65h22.4L335.7,342h-20.9L279,248.6H301.4z M132.9,246.8
	c23.5,0,38.1,15.5,38.1,40.9l0,0V342h-21.3v-52.7c0-14.8-7.5-24.1-21.7-24.1c-12.7,0-22.8,9.7-22.8,25.4l0,0V342H84.3v-93.4h20.9
	v10.8C111.8,251.8,121.3,246.8,132.9,246.8z M420,266c-15.9,0-28.2,12.7-28.2,29.1c0,16.4,12.3,29.3,28.2,29.3
	c16.4,0,28.4-13.1,28.4-29.3C448.4,279.1,436.4,266,420,266z M-83.6,266c-16.4,0-28.4,13.1-28.4,29.1c0,16.3,12,29.3,28.4,29.3
	c15.9,0,28.2-12.9,28.2-29.3C-55.4,278.7-67.7,266-83.6,266z M231.3,246.8c27.3,0,48.6,21.5,48.6,48.9c0,2.4-0.2,4.9-0.6,7.1l0,0
	h-96c-0.4-2.2-0.6-4.7-0.6-7.1C182.8,268.2,204,246.8,231.3,246.8z M24,246.8c27.3,0,48.6,21.5,48.6,48.9c0,2.4-0.2,4.9-0.6,7.1l0,0
	h-96c-0.4-2.2-0.6-4.7-0.6-7.1C-24.6,268.2-3.3,246.8,24,246.8z M231.3,265.4c-12.7,0-23,8.2-26.9,19.2l0,0h53.8
	C254.3,273.7,244,265.4,231.3,265.4z M24,265.4c-12.7,0-23,8.2-26.9,19.2l0,0h53.8C47,273.7,36.7,265.4,24,265.4z"/>
</svg>
