<svg xmlns="http://www.w3.org/2000/svg" viewBox="0 0 227.25 204.36"><defs><style>.cls-1,.cls-3{fill:#00b3f0;}.cls-2,.cls-6{fill:#0061af;}.cls-3,.cls-4,.cls-5,.cls-6{fill-rule:evenodd;}.cls-4{fill:#febe10;}.cls-5{fill:#f7941d;}</style></defs><g id="Layer_2" data-name="Layer 2"><g id="Layer_1-2" data-name="Layer 1"><path class="cls-1" d="M9.62,90.06c.42,0,.61.15.61.59V92.2c0,.45-.19.62-.61.62H3.33v4H9.2c.44,0,.61.15.61.6V99c0,.45-.17.62-.61.62H3.33v6.59c0,.44-.15.64-.59.64H.59c-.44,0-.59-.2-.59-.64V90.7c0-.44.15-.64.59-.64Z"/><path class="cls-1" d="M12.84,93.88c0-2.07,1.53-4,6-4s6,2,6,4V103c0,2.08-1.53,4-6,4s-6-1.94-6-4Zm8.66.59c0-1.23-1-1.85-2.66-1.85s-2.64.62-2.64,1.85v7.94c0,1.24,1,1.85,2.64,1.85s2.66-.61,2.66-1.85Z"/><path class="cls-1" d="M40.51,106.21c0,.42-.15.62-.59.62H38a.53.53,0,0,1-.57-.3l-4.76-8.16a11.39,11.39,0,0,1-1-2v9.84c0,.42-.15.62-.6.62H29.12c-.45,0-.6-.2-.6-.62V90.68c0-.42.15-.62.6-.62h1.94a.52.52,0,0,1,.52.24l5,8.51a17.44,17.44,0,0,1,.84,1.73V90.68c0-.42.14-.62.59-.62h2c.44,0,.59.2.59.62Z"/><path class="cls-1" d="M44.94,106.83c-.39,0-.52-.23-.52-.64V90.7c0-.44.15-.64.6-.64h5.37c4.46,0,6,2,6,4v8.73c0,2.07-1.56,4-6,4Zm2.81-14v11.24h2.64c1.68,0,2.69-.61,2.69-1.84V94.67c0-1.23-1-1.85-2.69-1.85Z"/><path class="cls-1" d="M66.12,90.06a.74.74,0,0,1,.79.62l4.59,15.53c.12.39,0,.62-.45.62H68.83c-.42,0-.59-.23-.71-.62l-.87-3H62.67l-.87,3c-.12.39-.29.62-.73.62h-2c-.45,0-.59-.23-.47-.62l4.61-15.53a.71.71,0,0,1,.76-.62Zm-.42,7.77A36.33,36.33,0,0,1,65,93.34c0,.32-.47,3.43-.77,4.46l-.84,2.76h3.13Z"/><path class="cls-1" d="M82.22,90.06c.42,0,.61.15.61.59V92.2c0,.45-.19.62-.61.62h-3.5v13.37c0,.44-.15.64-.6.64H76c-.44,0-.62-.2-.62-.64V92.82h-3.5c-.44,0-.61-.17-.61-.62V90.65c0-.44.17-.59.61-.59Z"/><path class="cls-1" d="M88.68,106.19c0,.44-.15.64-.6.64H85.94c-.44,0-.59-.2-.59-.64V90.7c0-.44.15-.64.59-.64h2.14c.45,0,.6.2.6.64Z"/><path class="cls-1" d="M92.32,93.88c0-2.07,1.53-4,6-4s6,2,6,4V103c0,2.08-1.53,4-6,4s-6-1.94-6-4Zm8.66.59c0-1.23-1-1.85-2.66-1.85s-2.64.62-2.64,1.85v7.94c0,1.24,1,1.85,2.64,1.85s2.66-.61,2.66-1.85Z"/><path class="cls-1" d="M120,106.21c0,.42-.15.62-.6.62h-1.94a.53.53,0,0,1-.57-.3l-4.76-8.16a11.92,11.92,0,0,1-1-2v9.84c0,.42-.14.62-.59.62h-2c-.44,0-.59-.2-.59-.62V90.68c0-.42.15-.62.59-.62h2a.52.52,0,0,1,.52.24l5,8.51a17.44,17.44,0,0,1,.84,1.73V90.68c0-.42.14-.62.59-.62h1.94c.45,0,.6.2.6.62Z"/><path class="cls-1" d="M.77,140.69c-.58,0-.76-.32-.76-.93V117.15c0-.65.22-.93.86-.93H8.72c6.52,0,8.78,2.84,8.78,5.86v12.74c0,3-2.26,5.87-8.78,5.87Zm4.1-20.44v16.41H8.72c2.45,0,3.93-.9,3.93-2.7V123c0-1.8-1.48-2.7-3.93-2.7Z"/><path class="cls-1" d="M23.73,140.69c-.64,0-.86-.29-.86-.93V117.15c0-.65.22-.93.86-.93H36c.62,0,.9.21.9.86v2.27c0,.64-.28.9-.9.9H27.73v5.83h7.7c.65,0,.94.21.94.86v2.16c0,.61-.29.87-.94.87h-7.7v6.69H36.4c.65,0,.9.22.9.86v2.27c0,.65-.25.9-.9.9Z"/><path class="cls-2" d="M57.2,136.11h9.13c.69,0,1,.24,1,1v2.58c0,.74-.33,1-1,1H52.53c-.62,0-.86-.37-.86-1.06V113.92c0-.74.24-1.07,1-1.07h3.56c.74,0,1,.33,1,1.07Z"/><path class="cls-2" d="M68.29,113.42c0-.73.25-1,1-1h3.52c.7,0,.95.29.95,1v3c0,3.07-2,5.12-5.9,6.06-.69.17-1,0-1.27-.65l-.82-2.3c-.24-.69,0-1.06.66-1.26,1.47-.5,1.88-1.11,1.88-2.13Z"/><path class="cls-2" d="M89.05,112.85a1.22,1.22,0,0,1,1.31,1L98,139.67c.21.65,0,1-.73,1H93.55c-.69,0-1-.37-1.18-1l-1.44-5H83.32l-1.44,5c-.2.65-.49,1-1.22,1H77.34c-.74,0-1-.37-.78-1l7.66-25.79a1.17,1.17,0,0,1,1.27-1Zm-.7,12.9a61.52,61.52,0,0,1-1.18-7.45c-.09.53-.78,5.69-1.27,7.41l-1.4,4.58h5.2Z"/><path class="cls-2" d="M115.78,112.85c.7,0,1,.25,1,1v2.57c0,.74-.33,1-1,1H110v22.19c0,.73-.25,1.06-1,1.06h-3.56c-.74,0-1-.33-1-1.06V117.44H98.59c-.74,0-1-.29-1-1v-2.57c0-.74.28-1,1-1Z"/><path class="cls-2" d="M126.51,124.11h8.85V113.92c0-.74.24-1.07,1-1.07h3.56c.74,0,1,.33,1,1.07v25.71c0,.73-.24,1.06-1,1.06h-3.56c-.74,0-1-.33-1-1.06V128.7h-8.85v10.93c0,.73-.24,1.06-1,1.06H122c-.74,0-1-.33-1-1.06V113.92c0-.74.25-1.07,1-1.07h3.56c.74,0,1,.33,1,1.07Z"/><path class="cls-2" d="M153,136.11h9.13c.7,0,1,.24,1,1v2.58c0,.74-.33,1-1,1h-13.8c-.61,0-.85-.37-.85-1.06V113.92c0-.74.24-1.07,1-1.07H152c.74,0,1,.33,1,1.07Z"/><path class="cls-2" d="M168.77,140.69c-.74,0-1-.33-1-1.06V113.92c0-.74.25-1.07,1-1.07h14c.69,0,1,.25,1,1v2.57c0,.74-.33,1-1,1h-9.46v6.63h8.76c.74,0,1.07.25,1.07,1v2.46c0,.7-.33,1-1.07,1h-8.76v7.62h9.87c.73,0,1,.24,1,1v2.58c0,.74-.29,1-1,1Zm1.59-34.88c-.41-.61-.2-1.06.54-1.06h3.56a1.46,1.46,0,0,1,1.39,1l2,4c.33.74.09,1-.49,1h-2.66a1.56,1.56,0,0,1-1.35-.7Z"/><path class="cls-2" d="M205.37,112.85c.69,0,1,.25,1,1v2.57c0,.74-.33,1-1,1h-5.82v22.19c0,.73-.24,1.06-1,1.06H195c-.74,0-1-.33-1-1.06V117.44h-5.82c-.73,0-1-.29-1-1v-2.57c0-.74.29-1,1-1Z"/><path class="cls-2" d="M211.55,140.69c-.74,0-1-.33-1-1.06V113.92c0-.74.24-1.07,1-1.07h14c.7,0,1,.25,1,1v2.57c0,.74-.33,1-1,1H216.1v6.63h8.76c.73,0,1.06.25,1.06,1v2.46c0,.7-.33,1-1.06,1H216.1v7.62H226c.74,0,1,.24,1,1v2.58c0,.74-.29,1-1,1Z"/><path class="cls-2" d="M.79,174c-.57,0-.75-.32-.75-.94v-22.6c0-.65.21-.94.86-.94H8.75c6.51,0,8.78,2.85,8.78,5.87v12.74c0,3-2.27,5.87-8.78,5.87ZM4.9,153.58V170H8.75c2.45,0,3.92-.9,3.92-2.7v-11c0-1.8-1.47-2.7-3.92-2.7Z"/><path class="cls-2" d="M23.22,150.37c0-.65.21-.9.86-.9h3.1c.61,0,.83.25.83.9V153c0,2.7-1.73,4.5-5.19,5.33-.61.14-.9,0-1.11-.58l-.72-2a.75.75,0,0,1,.57-1.12c1.3-.43,1.66-1,1.66-1.87Z"/><path class="cls-2" d="M34.05,174c-.64,0-.86-.29-.86-.94v-22.6c0-.65.22-.94.86-.94H46.36c.62,0,.9.22.9.87v2.26c0,.65-.28.9-.9.9H38.05v5.84h7.7c.65,0,.94.21.94.86v2.16c0,.61-.29.86-.94.86h-7.7V170h8.67c.65,0,.9.21.9.86v2.27c0,.65-.25.9-.9.9Z"/><path class="cls-2" d="M69.47,173.13c.25.43.18.9-.46.9h-3.6a1.52,1.52,0,0,1-1.3-.9l-4.32-7.42-3.92,7.42a1.47,1.47,0,0,1-1.3.9H51.19c-.61,0-.61-.58-.36-1l6.51-11.6-6.26-10.83c-.32-.54-.29-1,.36-1H55a1.48,1.48,0,0,1,1.33.9l4,6.91,3.74-6.91a1.44,1.44,0,0,1,1.3-.9h3.34c.62,0,.72.4.44.9l-6.48,11Z"/><path class="cls-2" d="M89.63,168.45c0,3-1.94,5.87-8.46,5.87s-8.46-2.85-8.46-5.87V155.13c0-3,2-5.87,8.46-5.87s8.46,2.85,8.46,5.87v1.73c0,.65-.21.9-.83.9h-3c-.65,0-.9-.25-.9-.9V156c0-1.8-1.26-2.7-3.67-2.7s-3.64.9-3.64,2.7v11.59c0,1.8,1.22,2.7,3.64,2.7s3.67-.9,3.67-2.7v-1.37c0-.65.25-.9.9-.9h3c.62,0,.83.25.83.9Z"/><path class="cls-2" d="M95.18,174c-.65,0-.87-.29-.87-.94v-22.6c0-.65.22-.94.87-.94h12.31c.61,0,.9.22.9.87v2.26c0,.65-.29.9-.9.9H99.17v5.84h7.7c.65,0,.94.21.94.86v2.16c0,.61-.29.86-.94.86h-7.7V170h8.68c.64,0,.9.21.9.86v2.27c0,.65-.26.9-.9.9Z"/><path class="cls-2" d="M118.32,170h8c.61,0,.9.21.9.86v2.27c0,.65-.29.9-.9.9H114.22c-.54,0-.76-.32-.76-.94v-22.6c0-.65.22-.94.87-.94h3.13c.65,0,.86.29.86.94Z"/><path class="cls-2" d="M136.21,170h8c.61,0,.9.21.9.86v2.27c0,.65-.29.9-.9.9H132.11c-.54,0-.76-.32-.76-.94v-22.6c0-.65.22-.94.87-.94h3.13c.65,0,.86.29.86.94Z"/><path class="cls-2" d="M150.11,174c-.65,0-.87-.29-.87-.94v-22.6c0-.65.22-.94.87-.94h12.31c.61,0,.9.22.9.87v2.26c0,.65-.29.9-.9.9H154.1v5.84h7.71c.64,0,.93.21.93.86v2.16c0,.61-.29.86-.93.86H154.1V170h8.68c.65,0,.9.21.9.86v2.27c0,.65-.25.9-.9.9Z"/><path class="cls-2" d="M185.89,173.13c0,.61-.22.9-.86.9h-2.85a.77.77,0,0,1-.83-.43l-6.94-11.92a16.13,16.13,0,0,1-1.44-2.91v14.36c0,.61-.22.9-.87.9h-2.84c-.65,0-.86-.29-.86-.9V150.45c0-.61.21-.9.86-.9h2.84a.76.76,0,0,1,.76.36l7.23,12.42a24.29,24.29,0,0,1,1.23,2.52v-14.4c0-.61.21-.9.86-.9H185c.64,0,.86.29.86.9Z"/><path class="cls-2" d="M208.14,168.45c0,3-1.95,5.87-8.46,5.87s-8.46-2.85-8.46-5.87V155.13c0-3,1.94-5.87,8.46-5.87s8.46,2.85,8.46,5.87v1.73c0,.65-.22.9-.83.9h-3c-.65,0-.9-.25-.9-.9V156c0-1.8-1.26-2.7-3.67-2.7s-3.64.9-3.64,2.7v11.59c0,1.8,1.23,2.7,3.64,2.7s3.67-.9,3.67-2.7v-1.37c0-.65.25-.9.9-.9h3c.61,0,.83.25.83.9Z"/><path class="cls-2" d="M213.68,174c-.65,0-.86-.29-.86-.94v-22.6c0-.65.21-.94.86-.94H226c.61,0,.9.22.9.87v2.26c0,.65-.29.9-.9.9h-8.32v5.84h7.71c.65,0,.93.21.93.86v2.16c0,.61-.28.86-.93.86h-7.71V170h8.68c.65,0,.9.21.9.86v2.27c0,.65-.25.9-.9.9Z"/><path class="cls-1" d="M.56,199.84c-.4,0-.52-.23-.52-.65V183.71c0-.44.15-.64.59-.64H6c4.47,0,6,2,6,4v8.73c0,2.07-1.55,4-6,4Zm2.81-14v11.24H6c1.68,0,2.69-.61,2.69-1.85v-7.54c0-1.23-1-1.85-2.69-1.85Z"/><path class="cls-1" d="M18.9,195.42c0,1.24,1,1.85,2.64,1.85s2.68-.61,2.68-1.85V183.71c0-.44.15-.64.6-.64H27c.44,0,.57.2.57.64V196c0,2.08-1.53,4-6,4s-6-1.94-6-4v-12.3c0-.44.18-.64.62-.64h2.15c.41,0,.59.2.59.64Z"/><path class="cls-1" d="M49.32,196c0,1.63-.94,3.16-3.43,3.75l2.64,2.34c.32.3.35.6.08.87l-1.09,1.16a.54.54,0,0,1-.84.05L42.14,200c-3.55-.3-4.8-2.07-4.8-4v-9.12c0-2.07,1.53-4,6-4s6,1.95,6,4Zm-8.63-.51c0,1.23,1,1.85,2.64,1.85S46,196.73,46,195.5v-8.09c0-1.23-1-1.85-2.66-1.85s-2.64.62-2.64,1.85Z"/><path class="cls-1" d="M56.2,195.42c0,1.24,1,1.85,2.63,1.85s2.69-.61,2.69-1.85V183.71c0-.44.15-.64.59-.64h2.15c.44,0,.57.2.57.64V196c0,2.08-1.53,4-6,4s-6-1.94-6-4v-12.3c0-.44.18-.64.62-.64H55.6c.42,0,.6.2.6.64Z"/><path class="cls-1" d="M69.24,199.84c-.45,0-.6-.2-.6-.65V183.71c0-.44.15-.64.6-.64h8.43c.42,0,.62.15.62.59v1.55c0,.45-.2.62-.62.62H72v4h5.28c.44,0,.64.14.64.59v1.48c0,.42-.2.59-.64.59H72v4.58h6c.44,0,.61.15.61.6v1.55c0,.44-.17.62-.61.62Zm5.45-18.42a.94.94,0,0,1-.79.42H72.29c-.37,0-.54-.2-.32-.62l1.21-2.42a.87.87,0,0,1,.84-.61h2.14c.45,0,.57.27.33.61Z"/><path class="cls-1" d="M82.35,199.84c-.44,0-.59-.2-.59-.65V183.71c0-.44.15-.64.59-.64h4.51c4.47,0,6,1.65,6,3.72v1.46A2.87,2.87,0,0,1,91,191c1.68.59,2.62,1.63,2.62,3v1.95c0,2.07-1.51,3.9-6,3.9Zm2.74-14.11V190h1.85c1.58,0,2.59-.59,2.59-1.85v-.86c0-1.23-1-1.58-2.67-1.58Zm0,6.81v4.63h2.54c1.65,0,2.69-.59,2.69-1.82v-1.11c0-1.06-1-1.7-2.69-1.7Z"/><path class="cls-1" d="M97.49,199.84c-.45,0-.59-.2-.59-.65V183.71c0-.44.14-.64.59-.64h8.43c.42,0,.62.15.62.59v1.55c0,.45-.2.62-.62.62h-5.69v4h5.27c.45,0,.64.14.64.59v1.48c0,.42-.19.59-.64.59h-5.27v4.58h5.94c.44,0,.61.15.61.6v1.55c0,.44-.17.62-.61.62Z"/><path class="cls-1" d="M121.33,196c0,2.08-1.33,4-5.79,4s-5.8-1.94-5.8-4v-9.12c0-2.07,1.33-4,5.8-4s5.79,1.95,5.79,4v1.18c0,.45-.15.62-.57.62h-2c-.45,0-.62-.17-.62-.62v-.59c0-1.23-.86-1.85-2.52-1.85s-2.49.62-2.49,1.85v7.94c0,1.24.84,1.85,2.49,1.85s2.52-.61,2.52-1.85v-.93c0-.45.17-.62.62-.62h2c.42,0,.57.17.57.62Z"/><path class="cls-3" d="M158.92,9.7A13.21,13.21,0,1,0,175.16.48,13.22,13.22,0,0,0,158.92,9.7Z"/><path class="cls-4" d="M148.75,65.35a8.18,8.18,0,1,0,10.56-4.74A8.19,8.19,0,0,0,148.75,65.35Z"/><path class="cls-5" d="M127,19a131.4,131.4,0,0,1,4.26,14.63c.4.1.82.19,1.21.3,12.29,3.34,21.23,9.43,29.89,19.13,2.25-5.75,4.45-11.66,7.19-18.68A66.73,66.73,0,0,0,127,19Z"/><path class="cls-3" d="M162.33,57.8a12,12,0,0,1-10.21,21.72l-.06,0,0,0c-3,7.76-6.26,16-8.42,21.72,0,0,13.52-4.26,35.25-6.17,0,0,12.75-28.68,25.19-45.88A197.15,197.15,0,0,0,162.33,57.8Z"/><path class="cls-6" d="M145.14,64a12.06,12.06,0,0,1,13.33-7.58c-7.41-8-14.64-13.65-25-17.09A275.42,275.42,0,0,1,122.35,74.9a108.53,108.53,0,0,1,21.33,26.33c2.16-5.7,5.39-14,8.42-21.72A12,12,0,0,1,145.14,64Z"/><path class="cls-4" d="M169.51,34.37c19-8.41,31-10.48,55.69-14.74-4.06,4.8-10.52,14.85-15.14,23.49-23.17,3-30.66,4.39-47.75,9.94C164.56,47.3,166.76,41.39,169.51,34.37Z"/></g></g></svg>